<?xml version="1.0" encoding="UTF-8" standalone="no"?>
<!-- Created with Inkscape (http://www.inkscape.org/) -->

<svg
   xmlns:dc="http://purl.org/dc/elements/1.1/"
   xmlns:cc="http://creativecommons.org/ns#"
   xmlns:rdf="http://www.w3.org/1999/02/22-rdf-syntax-ns#"
   xmlns:svg="http://www.w3.org/2000/svg"
   xmlns="http://www.w3.org/2000/svg"
   xmlns:sodipodi="http://sodipodi.sourceforge.net/DTD/sodipodi-0.dtd"
   xmlns:inkscape="http://www.inkscape.org/namespaces/inkscape"
   id="svg2837"
   version="1.1"
   inkscape:version="0.47pre3 r22311"
   width="341.25"
   height="221.25"
   xml:space="preserve"
   sodipodi:docname="CMU_logo_stack_black.pdf"><metadata
     id="metadata2843"><rdf:RDF><cc:Work
         rdf:about=""><dc:format>image/svg+xml</dc:format><dc:type
           rdf:resource="http://purl.org/dc/dcmitype/StillImage" /><dc:title></dc:title></cc:Work></rdf:RDF></metadata><defs
     id="defs2841"><inkscape:perspective
       sodipodi:type="inkscape:persp3d"
       inkscape:vp_x="0 : 0.5 : 1"
       inkscape:vp_y="0 : 1000 : 0"
       inkscape:vp_z="1 : 0.5 : 1"
       inkscape:persp3d-origin="0.5 : 0.33333333 : 1"
       id="perspective2845" /><clipPath
       clipPathUnits="userSpaceOnUse"
       id="clipPath2855"><path
         d="M 0,0 273,0 273,177 0,177 0,0 z"
         id="path2857" /></clipPath><clipPath
       clipPathUnits="userSpaceOnUse"
       id="clipPath2877"><path
         d="m 0.06,0 272.069,0 0,176.755 -272.069,0 L 0.06,0 z"
         id="path2879" /></clipPath><clipPath
       clipPathUnits="userSpaceOnUse"
       id="clipPath2889"><path
         d="M 0,0 273,0 273,177 0,177 0,0 z"
         id="path2891" /></clipPath></defs><sodipodi:namedview
     pagecolor="#ffffff"
     bordercolor="#666666"
     borderopacity="1"
     objecttolerance="10"
     gridtolerance="10"
     guidetolerance="10"
     inkscape:pageopacity="0"
     inkscape:pageshadow="2"
     inkscape:window-width="640"
     inkscape:window-height="484"
     id="namedview2839"
     showgrid="false"
     inkscape:zoom="1.0666667"
     inkscape:cx="170.625"
     inkscape:cy="110.625"
     inkscape:window-x="0"
     inkscape:window-y="0"
     inkscape:window-maximized="0"
     inkscape:current-layer="g2847" /><g
     id="g2847"
     inkscape:groupmode="layer"
     inkscape:label="CMU_logo_stack_black"
     transform="matrix(1.25,0,0,-1.25,0,221.25)"><g
       id="g2849" /><g
       id="g2851"><g
         id="g2853"
         clip-path="url(#clipPath2855)"><path
           d="m 37.585,175.374 -1.183,0 c -0.065,-1.379 -0.789,-1.971 -2.167,-1.971 -2.761,0 -7.228,3.352 -11.961,3.352 -13.471,0 -21.617,-13.273 -21.617,-24.971 0,-11.763 7.752,-23.394 20.764,-23.394 7.885,0 10.842,3.746 12.944,3.746 1.38,0 2.169,-1.709 2.431,-2.693 l 0.986,0 0,16.099 -0.986,0 -0.394,-2.234 c -0.919,-5.322 -5.848,-13.735 -14.324,-13.735 -7.492,0 -10.382,7.03 -10.382,22.998 0,16.758 3.942,23 10.578,23 7.493,0 13.078,-9.001 14.128,-15.703 l 1.183,0 0,15.506"
           style="fill:#231f20;fill-opacity:1;fill-rule:nonzero;stroke:none"
           id="path2859" /><path
           d="m 73.441,135.015 -1.166,0 c 0,-1.686 -0.715,-3.629 -2.268,-3.629 -1.168,0 -1.491,1.23 -1.491,3.24 l 0,14.908 c 0,7.387 -6.937,9.202 -13.609,9.202 -6.483,0 -11.215,-3.174 -11.215,-6.805 0,-2.268 1.297,-4.211 4.215,-4.211 2.461,0 3.951,1.619 3.951,3.887 0,3.113 -3.239,2.918 -3.304,4.019 -0.065,1.426 3.693,1.944 5.899,1.944 4.858,0 5.508,-2.397 5.508,-6.288 l 0,-5.441 -6.352,-0.52 c -5.899,-0.453 -12.315,-2.009 -12.315,-8.75 0,-5.638 5.056,-7.906 10.046,-7.906 2.53,0 7.002,0.971 8.685,4.082 1.167,-2.722 3.566,-4.082 6.484,-4.082 4.211,0 6.932,2.526 6.932,6.35 m -13.48,2.14 c -0.129,-3.437 -2.073,-6.548 -5.121,-6.548 -4.406,0 -4.602,4.019 -4.602,7.39 0,3.436 0.39,5.703 4.602,6.156 l 5.121,0.52 0,-7.518"
           style="fill:#231f20;fill-opacity:1;fill-rule:nonzero;stroke:none"
           id="path2861" /><path
           d="m 73.831,129.443 19.379,0 0,1.164 -5.963,0 0,16.529 c 0,4.988 1.554,8.49 5.639,10.305 l 0.26,0 c -1.102,-1.166 -1.557,-2.204 -1.557,-3.827 0,-2.525 1.881,-4.211 4.408,-4.211 3.11,0 4.926,2.268 4.926,4.733 0,3.111 -2.074,4.99 -5.12,4.99 -4.148,0 -7.326,-2.851 -8.556,-6.094 l -0.13,0 0,6.612 c -1.36,-1.686 -6.158,-1.686 -8.813,-1.686 l -4.473,0 0,-1.164 4.473,0 0,-26.187 -4.473,0 0,-1.164"
           style="fill:#231f20;fill-opacity:1;fill-rule:nonzero;stroke:none"
           id="path2863" /><path
           d="m 101.958,129.443 17.241,0 0,1.164 -3.823,0 0,17.759 c 0,3.305 3.239,8.037 6.869,8.037 1.881,0 3.825,-0.777 3.825,-5.314 l 0,-20.482 -3.697,0 0,-1.164 17.112,0 0,1.164 -4.471,0 0,18.086 c 0,6.998 -2.982,10.043 -9.139,10.043 -4.344,0 -8.62,-2.268 -10.369,-6.028 l -0.13,0 0,6.936 c -1.361,-1.686 -6.16,-1.686 -8.814,-1.686 l -4.604,0 0,-1.164 4.474,0 0,-26.187 -4.474,0 0,-1.164"
           style="fill:#231f20;fill-opacity:1;fill-rule:nonzero;stroke:none"
           id="path2865" /><path
           d="m 199.048,155.821 c 0,2.268 -2.465,3.434 -4.409,3.434 -2.138,0 -3.758,-1.426 -4.989,-2.852 -1.88,1.362 -4.471,2.333 -8.101,2.333 -5.445,0 -11.278,-3.563 -11.278,-9.463 0,-3.563 1.945,-6.35 5.38,-7.907 l 0,-0.129 c -2.528,-0.324 -6.483,-2.072 -6.483,-7.453 0,-3.24 1.491,-5.703 4.216,-6.482 l 0,-0.127 c -2.595,-0.715 -5.576,-3.307 -5.576,-6.418 0,-4.797 5.638,-8.49 12.834,-8.49 9.008,0 14.906,6.092 14.906,13.998 0,6.287 -3.11,9.138 -9.463,9.01 l -10.759,0 c -1.619,0 -3.823,0.064 -3.823,1.816 0,1.617 2.787,3.369 5.248,3.369 0.714,0 1.426,-0.195 2.138,-0.389 0.779,-0.259 1.624,-0.39 2.66,-0.39 5.573,0 11.536,3.176 11.536,9.334 0,2.074 -0.972,4.99 -2.786,6.547 1.165,1.166 1.749,2.591 4.276,2.916 l 0,-0.131 c -1.36,-0.711 -1.75,-1.553 -1.75,-2.852 0,-1.49 1.037,-2.98 2.981,-2.98 2.074,0 3.242,1.556 3.242,3.306 m -24.629,-28.712 10.176,0 c 6.481,0 8.62,-0.582 8.62,-4.538 0,-4.73 -5.834,-9.14 -12.378,-9.14 -5.835,0 -9.011,3.955 -9.14,7.066 0,2.852 0.973,4.731 2.722,6.612 m 11.276,22.164 c -0.063,-7.971 -1.749,-8.424 -4.082,-8.424 -2.594,0 -3.955,0.842 -3.955,8.619 0,5.252 0.584,8.102 3.955,8.102 3.045,0 4.019,-0.842 4.082,-8.297"
           style="fill:#231f20;fill-opacity:1;fill-rule:nonzero;stroke:none"
           id="path2867" /><path
           d="m 200.085,129.443 17.889,0 0,1.164 -4.474,0 0,29.037 c -1.36,-1.686 -6.157,-1.686 -8.813,-1.686 l -4.602,0 0,-1.164 4.472,0 0,-26.187 -4.472,0 0,-1.164"
           style="fill:#231f20;fill-opacity:1;fill-rule:nonzero;stroke:none"
           id="path2869" /><path
           d="m 204.409,168.023 c 0,-2.567 2.053,-4.62 4.619,-4.62 2.569,0 4.619,2.053 4.619,4.62 0,2.566 -2.05,4.619 -4.619,4.619 -2.566,0 -4.619,-2.053 -4.619,-4.619"
           style="fill:#231f20;fill-opacity:1;fill-rule:nonzero;stroke:none"
           id="path2871" /></g></g><g
       id="g2873"><g
         id="g2875"
         clip-path="url(#clipPath2877)"><path
           d="m 227.521,145.126 17.887,0 c -0.063,6.998 -6.546,13.74 -13.348,13.61 -7.651,0 -14.26,-6.612 -14.26,-15.36 0,-8.428 6.156,-14.711 14.453,-14.711 7.97,0 11.925,4.924 13.351,11.342 l -1.166,0 c -1.427,-6.029 -5.186,-9.789 -10.242,-9.789 -6.027,0 -6.675,5.057 -6.675,9.463 l 0,5.445 z m 0.142,1.168 -0.142,5.572 c 0,4.344 1.878,5.704 4.084,5.704 3.11,0 4.083,-2.139 4.083,-5.704 l 0,-5.572 -8.025,0"
           style="fill:#231f20;fill-opacity:1;fill-rule:nonzero;stroke:none"
           id="path2881" /><path
           d="m 0,72.447 12.571,0 0,1.167 -0.906,0 c -3.498,0 -4.86,0.908 -4.86,6.157 l 0,36.75 0.13,0 15.488,-44.074 1.752,0 15.099,43.294 0.13,0 0,-42.127 -5.573,0 0,-1.167 20.545,0 0,1.167 -4.862,0 0,43.295 4.862,0 0,1.164 -15.62,0 -10.953,-31.302 -0.128,0 -10.76,31.302 -16.592,0 0,-1.164 4.926,0 0,-37.72 c 0,-2.787 -0.647,-5.575 -4.991,-5.575 l -0.258,0 0,-1.167"
           style="fill:#231f20;fill-opacity:1;fill-rule:nonzero;stroke:none"
           id="path2883" /></g></g><g
       id="g2885"><g
         id="g2887"
         clip-path="url(#clipPath2889)"><path
           d="m 63.464,88.132 17.889,0 c -0.065,7 -6.546,13.738 -13.352,13.609 -7.647,0 -14.258,-6.609 -14.258,-15.359 0,-8.426 6.156,-14.712 14.453,-14.712 7.972,0 11.927,4.926 13.352,11.341 l -1.167,0 c -1.424,-6.027 -5.186,-9.787 -10.241,-9.787 -6.026,0 -6.676,5.056 -6.676,9.463 l 0,5.445 z m 0,1.166 0,5.574 c 0,4.342 1.881,5.703 4.083,5.703 3.113,0 4.084,-2.138 4.084,-5.703 l 0,-5.574 -8.167,0"
           style="fill:#231f20;fill-opacity:1;fill-rule:nonzero;stroke:none"
           id="path2893" /><path
           d="m 81.548,72.447 17.888,0 0,1.167 -4.472,0 0,46.405 c -1.167,-1.946 -4.733,-1.946 -9.334,-1.946 l -4.082,0 0,-1.164 4.472,0 0,-43.295 -4.472,0 0,-1.167"
           style="fill:#231f20;fill-opacity:1;fill-rule:nonzero;stroke:none"
           id="path2895" /><path
           d="m 100.603,72.447 17.887,0 0,1.167 -4.471,0 0,46.405 c -1.167,-1.946 -4.733,-1.946 -9.334,-1.946 l -4.082,0 0,-1.164 4.472,0 0,-43.295 -4.472,0 0,-1.167"
           style="fill:#231f20;fill-opacity:1;fill-rule:nonzero;stroke:none"
           id="path2897" /><path
           d="m 148.749,86.706 c 0,8.879 -6.869,15.035 -15.425,15.035 -8.554,0 -15.425,-6.156 -15.425,-15.035 0,-8.879 6.871,-15.036 15.425,-15.036 8.556,0 15.425,6.157 15.425,15.036 m -10.11,-7 c 0,-4.861 -2.01,-6.871 -5.315,-6.871 -3.305,0 -5.313,2.01 -5.313,6.871 l 0,13.998 c 0,4.862 2.008,6.871 5.313,6.871 3.305,0 5.315,-2.009 5.315,-6.871 l 0,-13.998"
           style="fill:#231f20;fill-opacity:1;fill-rule:nonzero;stroke:none"
           id="path2899" /><path
           d="m 148.5,72.447 17.24,0 0,1.167 -3.825,0 0,17.756 c 0,3.307 3.242,8.037 6.87,8.037 1.879,0 3.825,-0.777 3.825,-5.312 l 0,-20.481 -3.695,0 0,-1.167 17.11,0 0,1.167 -4.471,0 0,18.082 c 0,7 -2.982,10.045 -9.137,10.045 -4.346,0 -8.621,-2.267 -10.373,-6.027 l -0.129,0 0,6.936 c -1.362,-1.686 -6.155,-1.686 -8.813,-1.686 l -4.602,0 0,-1.166 4.47,0 0,-26.184 -4.47,0 0,-1.167"
           style="fill:#231f20;fill-opacity:1;fill-rule:nonzero;stroke:none"
           id="path2901" /><path
           d="m 0.13,61.119 5.056,0 0,-29.362 c 0,-10.046 6.934,-16.138 17.499,-16.138 11.926,0 17.11,6.287 17.11,15.815 l 0,24.24 c 0,3.758 1.037,5.445 3.371,5.445 l 1.686,0 0,1.166 -12.835,0 0,-1.166 1.88,0 c 3.305,0 4.342,-1.687 4.342,-5.445 l 0,-24.629 c 0,-8.816 -5.315,-13.092 -11.601,-13.092 -9.461,0 -11.342,6.352 -11.342,14.65 l 0,28.516 5.249,0 0,1.166 -20.415,0 0,-1.166"
           style="fill:#231f20;fill-opacity:1;fill-rule:nonzero;stroke:none"
           id="path2903" /><path
           d="m 42.3,16.656 17.24,0 0,1.168 -3.824,0 0,17.758 c 0,3.305 3.241,8.038 6.869,8.038 1.879,0 3.825,-0.778 3.825,-5.315 l 0,-20.481 -3.695,0 0,-1.168 17.11,0 0,1.168 -4.472,0 0,18.083 c 0,7 -2.981,10.046 -9.136,10.046 -4.346,0 -8.62,-2.269 -10.373,-6.029 l -0.128,0 0,6.936 C 54.353,45.175 49.56,45.175 46.901,45.175 l -4.601,0 0,-1.166 4.471,0 0,-26.185 -4.471,0 0,-1.168"
           style="fill:#231f20;fill-opacity:1;fill-rule:nonzero;stroke:none"
           id="path2905" /><path
           d="m 80.798,16.656 17.888,0 0,1.168 -4.474,0 0,29.036 c -1.361,-1.685 -6.156,-1.685 -8.815,-1.685 l -4.599,0 0,-1.166 4.47,0 0,-26.185 -4.47,0 0,-1.168"
           style="fill:#231f20;fill-opacity:1;fill-rule:nonzero;stroke:none"
           id="path2907" /><path
           d="m 85.12,55.239 c 0,-2.567 2.055,-4.621 4.621,-4.621 2.569,0 4.618,2.054 4.618,4.621 0,2.566 -2.049,4.619 -4.618,4.619 -2.566,0 -4.621,-2.053 -4.621,-4.619"
           style="fill:#231f20;fill-opacity:1;fill-rule:nonzero;stroke:none"
           id="path2909" /><path
           d="m 111.843,15.881 1.749,0 9.594,22.683 c 1.619,3.631 2.979,5.38 4.469,5.445 l 0.584,0 0,1.166 -10.111,0 0,-1.166 1.232,0 c 1.879,0 2.98,-0.714 2.98,-2.398 0,-1.039 -0.323,-2.464 -1.101,-4.278 l -4.404,-10.372 -7.585,17.048 3.888,0 0,1.166 -16.267,0 0,-1.166 2.786,0 12.186,-28.128"
           style="fill:#231f20;fill-opacity:1;fill-rule:nonzero;stroke:none"
           id="path2911" /><path
           d="m 135.89,32.343 17.886,0 c -0.064,6.999 -6.546,13.738 -13.351,13.61 -7.647,0 -14.26,-6.611 -14.26,-15.361 0,-8.426 6.159,-14.711 14.453,-14.711 7.973,0 11.928,4.922 13.352,11.34 l -1.165,0 c -1.426,-6.028 -5.186,-9.787 -10.24,-9.787 -6.029,0 -6.675,5.056 -6.675,9.465 l 0,5.444 z m 0,1.167 0,5.572 c 0,4.344 1.877,5.704 4.081,5.704 3.111,0 4.084,-2.137 4.084,-5.704 l 0,-5.572 -8.165,0"
           style="fill:#231f20;fill-opacity:1;fill-rule:nonzero;stroke:none"
           id="path2913" /><path
           d="m 153.899,16.656 19.379,0 0,1.168 -5.963,0 0,16.528 c 0,4.99 1.556,8.49 5.639,10.304 l 0.259,0 c -1.103,-1.166 -1.556,-2.203 -1.556,-3.825 0,-2.526 1.881,-4.212 4.407,-4.212 3.113,0 4.927,2.268 4.927,4.733 0,3.111 -2.074,4.99 -5.122,4.99 -4.146,0 -7.321,-2.852 -8.554,-6.093 l -0.129,0 0,6.611 c -1.361,-1.685 -6.157,-1.685 -8.816,-1.685 l -4.471,0 0,-1.166 4.471,0 0,-26.185 -4.471,0 0,-1.168"
           style="fill:#231f20;fill-opacity:1;fill-rule:nonzero;stroke:none"
           id="path2915" /><path
           d="m 182.524,15.881 1.167,0 c 0.324,1.037 1.361,1.553 2.657,1.553 1.685,0 3.696,-1.553 7.324,-1.553 6.158,0 10.369,5.312 10.369,10.627 0,7.909 -5.443,8.492 -12.378,9.465 -3.63,0.518 -5.897,1.099 -5.897,3.951 0,3.048 2.657,4.862 6.155,4.862 4.862,0 7.455,-3.825 9.074,-8.037 l 1.037,0 -0.388,9.204 -0.972,0 c 0,-0.778 -0.777,-1.426 -2.008,-1.426 -2.077,0 -3.762,1.426 -6.743,1.426 -6.481,0 -9.657,-5.511 -9.657,-9.657 0,-8.362 6.352,-9.075 11.278,-9.657 4.669,-0.584 6.611,-1.037 6.611,-4.02 0,-3.433 -2.851,-5.574 -6.351,-5.574 -4.925,0 -8.944,4.99 -10.111,9.723 l -1.167,0 0,-10.887"
           style="fill:#231f20;fill-opacity:1;fill-rule:nonzero;stroke:none"
           id="path2917" /><path
           d="m 205.06,16.656 17.888,0 0,1.168 -4.469,0 0,29.036 c -1.361,-1.685 -6.16,-1.685 -8.816,-1.685 l -4.603,0 0,-1.166 4.474,0 0,-26.185 -4.474,0 0,-1.168"
           style="fill:#231f20;fill-opacity:1;fill-rule:nonzero;stroke:none"
           id="path2919" /><path
           d="m 209.387,55.239 c 0,-2.567 2.05,-4.621 4.618,-4.621 2.566,0 4.621,2.054 4.621,4.621 0,2.566 -2.055,4.619 -4.621,4.619 -2.568,0 -4.618,-2.053 -4.618,-4.619"
           style="fill:#231f20;fill-opacity:1;fill-rule:nonzero;stroke:none"
           id="path2921" /><path
           d="m 226.048,44.009 0,-20.741 c 0,-6.157 5.311,-7.387 7.126,-7.387 3.955,0 6.612,1.617 8.62,4.988 l -0.842,0.453 c -0.777,-1.166 -1.814,-2.72 -3.433,-2.72 -1.686,0 -2.528,1.23 -2.528,3.369 l 0,22.038 5.961,0 0,1.166 -5.961,0 0,13.934 -1.169,0 c 0,-6.868 -4.665,-13.934 -11.213,-13.934 l 0,-1.166 3.439,0"
           style="fill:#231f20;fill-opacity:1;fill-rule:nonzero;stroke:none"
           id="path2923" /><path
           d="m 240.757,44.009 2.722,0 12.446,-28.843 -0.389,-2.592 c -0.26,-1.879 -1.556,-9.269 -3.694,-9.918 l 0,0.196 c 0.258,0.906 0.323,1.621 0.323,2.203 0,2.205 -1.556,3.888 -4.278,3.888 -2.852,0 -4.279,-1.943 -4.279,-4.404 0,-2.66 2.464,-4.539 5.316,-4.539 5.122,0 6.418,5.639 7.001,8.359 l 1.749,7.909 3.37,8.425 6.418,14.454 c 1.424,3.306 2.721,4.862 4.148,4.862 l 0.519,0 0,1.166 -10.113,0 0,-1.166 1.362,0 c 2.074,0 2.981,-1.167 2.981,-2.268 0,-1.299 -0.841,-3.436 -1.879,-5.899 l -3.759,-8.881 -7.582,17.048 4.275,0 0,1.166 -16.657,0 0,-1.166"
           style="fill:#231f20;fill-opacity:1;fill-rule:nonzero;stroke:none"
           id="path2925" /><path
           d="m 148.946,145.311 17.888,0 c -0.063,6.998 -6.546,13.74 -13.349,13.609 -7.65,0 -14.259,-6.611 -14.259,-15.359 0,-8.428 6.156,-14.711 14.453,-14.711 7.969,0 11.925,4.924 13.35,11.342 l -1.166,0 c -1.426,-6.03 -5.185,-9.789 -10.241,-9.789 -6.027,0 -6.676,5.056 -6.676,9.462 l 0,5.446 z m 0.143,1.168 -0.143,5.572 c 0,4.344 1.879,5.703 4.085,5.703 3.11,0 4.082,-2.139 4.082,-5.703 l 0,-5.572 -8.024,0"
           style="fill:#231f20;fill-opacity:1;fill-rule:nonzero;stroke:none"
           id="path2927" /></g></g></g></svg>