<?xml version="1.0" encoding="UTF-8" standalone="no"?>
<svg
   xmlns:dc="http://purl.org/dc/elements/1.1/"
   xmlns:cc="http://web.resource.org/cc/"
   xmlns:rdf="http://www.w3.org/1999/02/22-rdf-syntax-ns#"
   xmlns:svg="http://www.w3.org/2000/svg"
   xmlns="http://www.w3.org/2000/svg"
   xmlns:sodipodi="http://sodipodi.sourceforge.net/DTD/sodipodi-0.dtd"
   xmlns:inkscape="http://www.inkscape.org/namespaces/inkscape"
   width="300.495"
   height="58.6785"
   id="svg2185"
   sodipodi:version="0.32"
   inkscape:version="0.45.1"
   sodipodi:docname="ECE_Red_Black.svg"
   sodipodi:docbase="/home/paulini/logos"
   inkscape:output_extension="org.inkscape.output.svg.inkscape">
  <metadata
     id="metadata2264">
    <rdf:RDF>
      <cc:Work
         rdf:about="">
        <dc:format>image/svg+xml</dc:format>
        <dc:type
           rdf:resource="http://purl.org/dc/dcmitype/StillImage" />
      </cc:Work>
    </rdf:RDF>
  </metadata>
  <sodipodi:namedview
     inkscape:window-height="638"
     inkscape:window-width="872"
     inkscape:pageshadow="2"
     inkscape:pageopacity="0.0"
     guidetolerance="10.0"
     gridtolerance="10.0"
     objecttolerance="10.0"
     borderopacity="1.0"
     bordercolor="#666666"
     pagecolor="#ffffff"
     id="base"
     inkscape:zoom="2.5890614"
     inkscape:cx="150.2475"
     inkscape:cy="29.339251"
     inkscape:window-x="221"
     inkscape:window-y="219"
     inkscape:current-layer="svg2185" />
  <defs
     id="defs2187">
    <marker
       id="ArrowEnd"
       viewBox="0 0 10 10"
       refX="0"
       refY="5"
       markerUnits="strokeWidth"
       markerWidth="4"
       markerHeight="3"
       orient="auto">
      <path
         d="M 0 0 L 10 5 L 0 10 z"
         id="path2190" />
    </marker>
    <marker
       id="ArrowStart"
       viewBox="0 0 10 10"
       refX="10"
       refY="5"
       markerUnits="strokeWidth"
       markerWidth="4"
       markerHeight="3"
       orient="auto">
      <path
         d="M 10 0 L 0 5 L 10 10 z"
         id="path2193" />
    </marker>
  </defs>
  <g
     id="g2195">
    <path
       style="stroke:none; fill-rule:evenodd; fill:#000000"
       d="M 27.0026 54.0039C 21.1276 50.875 16.1041 44.0234 13.8034 35.3203C 16.0104 35.4492 18.4049 35.4687 20.9479 35.3476C 20.6471 34.0234 20.362 32.6679 20.1041 31.289C 20.0338 30.9101 19.9713 30.5312 19.9049 30.1484C 17.2838 30.1601 14.8737 29.996 12.7487 29.6718C 11.7331 20.707 13.9362 12.4765 18.2956 7.4257C 11.2448 11.7109 6.64322 19.2734 6.17057 27.625C 4.90103 26.871 4.08072 25.9492 3.8151 24.8867C 3.7526 24.6289 3.73697 24.375 3.7526 24.1328C 1.01041 25.9804 -0.376311 27.9296 0.0885329 29.8515C 0.572908 31.8671 2.98307 33.3789 6.69791 34.3203C 8.88541 44.664 17.1315 52.2461 27.0143 54.0078"
       id="path2197" />
    <path
       style="stroke:none; fill-rule:evenodd; fill:#000000"
       d="M 61.3385 18.707C 60.8776 16.7851 58.694 15.4921 55.3073 14.7578C 55.487 15.0429 55.6276 15.3593 55.7135 15.7109C 55.987 16.8125 55.6198 17.9765 54.7487 19.1445C 51.3893 11.2265 44.2252 5.6132 35.8971 4.125C 41.9127 7.3242 47.0377 14.4296 49.2604 23.4257C 46.5065 24.914 43.0182 26.289 39.026 27.4062C 39.0612 27.5937 39.0963 27.789 39.1315 27.9804C 39.4088 29.4804 39.6823 30.957 39.944 32.4101C 43.7526 31.4218 47.2213 30.25 50.2096 28.9726C 51.0807 37.7343 48.8776 45.746 44.6002 50.6992C 52.9948 45.5937 57.9127 35.8554 56.5221 25.6562C 60.026 23.3281 61.8581 20.8867 61.3268 18.6953"
       id="path2199" />
    <path
       style="stroke:none; fill-rule:evenodd; fill:#8d3e3e"
       d="M 39.8346 53.2539C 35.0143 54.3632 29.112 44.1875 26.6627 30.5234C 24.2135 16.8554 26.1393 4.875 30.9596 3.7656C 31.2174 3.7031 31.4713 3.6914 31.7135 3.707C 29.8815 1.0859 27.944 -0.246098 26.0182 0.1875C 20.6745 1.3789 18.7565 15.4218 21.737 31.5546C 24.7135 47.6836 31.4635 59.789 36.8073 58.5976C 38.7291 58.1679 40.0338 56.0976 40.7838 52.8789C 40.4987 53.0468 40.1823 53.1796 39.8307 53.2617"
       id="path2201" />
    <path
       style="stroke:none; fill-rule:evenodd; fill:#000000"
       d="M 82.2917 13.7929L 75.7174 13.7929L 75.7174 19.914L 83.0729 19.914L 83.0729 21.75L 73.4987 21.75L 73.4987 4.7656L 82.694 4.7656L 82.694 6.6054L 75.7135 6.6054L 75.7135 11.9726L 82.2877 11.9726L 82.2877 13.7851"
       id="path2203" />
    <path
       style="stroke:none; fill-rule:evenodd; fill:#000000"
       d="M 85.8932 21.7539L 88.1081 21.7539L 88.1081 3.8632L 85.8932 3.8632L 85.8932 21.7539z"
       id="path2205" />
    <path
       style="stroke:none; fill-rule:evenodd; fill:#000000"
       d="M 93.0768 14.4492C 93.2526 12.914 94.2096 10.8476 96.4752 10.8476C 98.944 10.8476 99.5495 13.0625 99.5221 14.4492L 93.0729 14.4492L 93.0768 14.4492zM 101.593 16.0586C 101.643 15.8086 101.667 15.457 101.667 15.0039C 101.667 12.7617 100.635 9.2617 96.6549 9.2617C 93.1041 9.2617 90.9127 12.1562 90.9127 15.8632C 90.9127 19.5156 93.1784 22.0117 96.9088 22.0117C 98.8463 22.0117 100.206 21.5859 100.987 21.2304L 100.589 19.6679C 99.7838 19.9921 98.7995 20.2695 97.2135 20.2695C 94.9987 20.2695 93.1081 19.0351 93.0573 16.039L 101.596 16.0625"
       id="path2207" />
    <path
       style="stroke:none; fill-rule:evenodd; fill:#000000"
       d="M 113.112 21.3281C 112.534 21.6015 111.249 22.0312 109.612 22.0312C 105.932 22.0312 103.542 19.539 103.542 15.7812C 103.542 12.0273 106.108 9.2812 110.093 9.2812C 111.401 9.2812 112.561 9.6054 113.163 9.9336L 112.659 11.621C 112.132 11.3476 111.3 11.0429 110.093 11.0429C 107.296 11.0429 105.784 13.1328 105.784 15.6796C 105.784 18.5 107.596 20.2382 110.014 20.2382C 111.272 20.2382 112.104 19.9375 112.733 19.6601L 113.108 21.3203"
       id="path2209" />
    <path
       style="stroke:none; fill-rule:evenodd; fill:#000000"
       d="M 118.702 6.6367L 118.702 9.5586L 121.878 9.5586L 121.878 11.246L 118.702 11.246L 118.702 17.8203C 118.702 19.332 119.128 20.1875 120.362 20.1875C 120.964 20.1875 121.315 20.1406 121.643 20.039L 121.741 21.7265C 121.315 21.875 120.635 22.0273 119.776 22.0273C 118.745 22.0273 117.913 21.6757 117.385 21.0976C 116.784 20.4179 116.53 19.3359 116.53 17.8984L 116.53 11.246L 114.643 11.246L 114.643 9.5586L 116.53 9.5586L 116.53 7.3164L 118.694 6.6367"
       id="path2211" />
    <path
       style="stroke:none; fill-rule:evenodd; fill:#000000"
       d="M 124.397 13.3632C 124.397 11.9296 124.374 10.6953 124.3 9.5586L 126.237 9.5586L 126.335 11.9492L 126.409 11.9492C 126.96 10.3125 128.323 9.2812 129.807 9.2812C 130.03 9.2812 130.21 9.3046 130.409 9.3554L 130.409 11.4179C 130.159 11.3945 129.932 11.371 129.632 11.371C 128.073 11.371 126.964 12.5546 126.659 14.1914C 126.608 14.5156 126.585 14.871 126.585 15.25L 126.585 21.75L 124.37 21.75L 124.393 13.3593"
       id="path2213" />
    <path
       style="stroke:none; fill-rule:evenodd; fill:#000000"
       d="M 132.714 21.7539L 132.714 9.5586L 134.928 9.5586L 134.928 21.7539L 132.714 21.7539zM 133.772 7.3164C 132.944 7.3164 132.385 6.664 132.385 5.8828C 132.385 5.1054 132.964 4.4726 133.819 4.4726C 134.675 4.4726 135.229 5.1015 135.229 5.8828C 135.229 6.6601 134.675 7.3164 133.796 7.3164L 133.772 7.3164"
       id="path2215" />
    <path
       style="stroke:none; fill-rule:evenodd; fill:#000000"
       d="M 147.303 21.3281C 146.725 21.6015 145.44 22.0312 143.803 22.0312C 140.128 22.0312 137.733 19.539 137.733 15.7812C 137.733 12.0273 140.3 9.2812 144.284 9.2812C 145.593 9.2812 146.753 9.6054 147.354 9.9336L 146.85 11.621C 146.323 11.3476 145.491 11.0429 144.284 11.0429C 141.487 11.0429 139.975 13.1328 139.975 15.6796C 139.975 18.5 141.788 20.2382 144.206 20.2382C 145.464 20.2382 146.296 19.9375 146.925 19.6601L 147.3 21.3203"
       id="path2217" />
    <path
       style="stroke:none; fill-rule:evenodd; fill:#000000"
       d="M 156.35 17.6484C 156.35 17.875 156.327 18.125 156.253 18.3515C 155.901 19.3828 154.87 20.3906 153.257 20.3906C 152.151 20.3906 151.194 19.7382 151.194 18.2773C 151.194 15.9101 153.94 15.4804 156.358 15.5312L 156.358 17.6445L 156.35 17.6484zM 158.514 14.2734C 158.514 11.832 157.608 9.2851 153.854 9.2851C 152.319 9.2851 150.831 9.7109 149.823 10.3437L 150.327 11.8281C 151.182 11.25 152.366 10.9218 153.526 10.9218C 156.018 10.8984 156.296 12.7343 156.296 13.7421L 156.296 13.9921C 151.585 13.9687 148.964 15.5781 148.964 18.5273C 148.964 20.289 150.221 22.0273 152.69 22.0273C 154.428 22.0273 155.761 21.1718 156.417 20.2148L 156.491 20.2148L 156.69 21.75L 158.678 21.75C 158.553 20.9218 158.503 19.8867 158.503 18.8281L 158.503 14.2695"
       id="path2219" />
    <path
       style="stroke:none; fill-rule:evenodd; fill:#000000"
       d="M 162.069 21.7539L 164.284 21.7539L 164.284 3.8632L 162.069 3.8632L 162.069 21.7539z"
       id="path2221" />
    <path
       style="stroke:none; fill-rule:evenodd; fill:#000000"
       d="M 208.19 21.2265C 207.409 21.6289 205.772 22.0312 203.706 22.0312C 198.921 22.0312 195.343 19.0078 195.343 13.414C 195.343 8.0742 198.944 4.496 204.21 4.496C 206.3 4.496 207.659 4.9492 208.241 5.25L 207.69 7.0351C 206.885 6.6328 205.702 6.332 204.292 6.332C 200.311 6.332 197.667 8.875 197.667 13.3359C 197.667 17.5195 200.057 20.164 204.167 20.164C 205.526 20.164 206.885 19.8906 207.768 19.4609L 208.194 21.2226"
       id="path2223" />
    <path
       style="stroke:none; fill-rule:evenodd; fill:#000000"
       d="M 215.573 20.371C 213.432 20.371 211.921 18.3554 211.921 15.6875C 211.921 13.371 213.053 10.9531 215.647 10.9531C 218.264 10.9531 219.3 13.5468 219.3 15.6132C 219.3 18.3828 217.714 20.375 215.596 20.375L 215.573 20.375L 215.573 20.371zM 215.55 22.0312C 218.444 22.0312 221.596 20.0664 221.596 15.5312C 221.596 11.8281 219.229 9.2851 215.725 9.2851C 212.374 9.2851 209.678 11.6757 209.678 15.7617C 209.678 19.6132 212.245 22.0351 215.522 22.0351L 215.546 22.0351"
       id="path2225" />
    <path
       style="stroke:none; fill-rule:evenodd; fill:#000000"
       d="M 224.393 12.8593C 224.393 11.5781 224.343 10.5664 224.296 9.5586L 226.233 9.5586L 226.331 11.5234L 226.405 11.5234C 227.085 10.3671 228.218 9.2812 230.261 9.2812C 231.897 9.2812 233.155 10.289 233.686 11.7226L 233.733 11.7226C 234.108 11.0195 234.612 10.5156 235.116 10.1367C 235.846 9.5859 236.628 9.2812 237.784 9.2812C 239.421 9.2812 241.815 10.3398 241.815 14.5703L 241.815 21.75L 239.651 21.75L 239.651 14.8476C 239.651 12.4804 238.768 11.0937 237.007 11.0937C 235.725 11.0937 234.768 12.0234 234.362 13.082C 234.264 13.4062 234.186 13.8125 234.186 14.1875L 234.186 21.746L 232.022 21.746L 232.022 14.4414C 232.022 12.4765 231.167 11.0898 229.479 11.0898C 228.12 11.0898 227.085 12.1953 226.733 13.3046C 226.608 13.6289 226.557 14.0078 226.557 14.3867L 226.557 21.7421L 224.393 21.7421L 224.393 12.8476"
       id="path2227" />
    <path
       style="stroke:none; fill-rule:evenodd; fill:#000000"
       d="M 247.628 14.6757C 247.628 14.4023 247.702 14.0742 247.753 13.7695C 248.178 12.1093 249.616 11.0507 251.128 11.0507C 253.471 11.0507 254.729 13.1406 254.729 15.5859C 254.729 18.3828 253.37 20.2968 251.026 20.2968C 249.468 20.2968 248.104 19.2382 247.725 17.7031C 247.651 17.4296 247.628 17.1015 247.628 16.7968L 247.628 14.6836L 247.628 14.6757zM 245.413 26.746L 247.628 26.746L 247.628 20.121L 247.678 20.121C 248.405 21.3281 249.792 22.0351 251.432 22.0351C 254.276 22.0351 256.975 19.8671 256.975 15.4843C 256.975 11.7812 254.761 9.289 251.784 9.289C 249.819 9.289 248.358 10.1445 247.475 11.6562L 247.428 11.6562L 247.303 9.5664L 245.315 9.5664C 245.389 10.7226 245.413 11.9843 245.413 13.5468L 245.413 26.75"
       id="path2229" />
    <path
       style="stroke:none; fill-rule:evenodd; fill:#000000"
       d="M 269.956 18.4296C 269.956 19.6875 269.979 20.7968 270.053 21.7539L 268.089 21.7539L 267.964 19.7656L 267.913 19.7656C 267.362 20.746 266.05 22.0312 263.885 22.0312C 261.971 22.0312 259.678 20.9492 259.678 16.6914L 259.678 9.5625L 261.893 9.5625L 261.893 16.289C 261.893 18.6054 262.62 20.1914 264.612 20.1914C 266.096 20.1914 267.132 19.1601 267.534 18.1523C 267.659 17.8515 267.733 17.4492 267.733 17.0195L 267.733 9.5625L 269.948 9.5625L 269.948 18.4296"
       id="path2231" />
    <path
       style="stroke:none; fill-rule:evenodd; fill:#000000"
       d="M 276.307 6.6367L 276.307 9.5586L 279.483 9.5586L 279.483 11.246L 276.307 11.246L 276.307 17.8203C 276.307 19.332 276.733 20.1875 277.968 20.1875C 278.569 20.1875 278.925 20.1406 279.249 20.039L 279.35 21.7265C 278.925 21.875 278.241 22.0273 277.385 22.0273C 276.354 22.0273 275.522 21.6757 274.995 21.0976C 274.393 20.4179 274.139 19.3359 274.139 17.8984L 274.139 11.246L 272.253 11.246L 272.253 9.5586L 274.139 9.5586L 274.139 7.3164L 276.303 6.6367"
       id="path2233" />
    <path
       style="stroke:none; fill-rule:evenodd; fill:#000000"
       d="M 283.112 14.4492C 283.288 12.914 284.245 10.8476 286.514 10.8476C 288.983 10.8476 289.585 13.0625 289.561 14.4492L 283.112 14.4492zM 291.632 16.0586C 291.682 15.8086 291.706 15.457 291.706 15.0039C 291.706 12.7617 290.675 9.2617 286.694 9.2617C 283.143 9.2617 280.952 12.1562 280.952 15.8632C 280.952 19.5156 283.218 22.0117 286.948 22.0117C 288.885 22.0117 290.249 21.5859 291.03 21.2304L 290.628 19.6679C 289.823 19.9921 288.843 20.2695 287.253 20.2695C 285.038 20.2695 283.147 19.0351 283.096 16.039L 291.639 16.0625"
       id="path2235" />
    <path
       style="stroke:none; fill-rule:evenodd; fill:#000000"
       d="M 294.479 13.3632C 294.479 11.9296 294.456 10.6953 294.382 9.5586L 296.319 9.5586L 296.417 11.9492L 296.491 11.9492C 297.046 10.3125 298.405 9.2812 299.893 9.2812C 300.116 9.2812 300.296 9.3046 300.495 9.3554L 300.495 11.4179C 300.245 11.3945 300.018 11.371 299.718 11.371C 298.155 11.371 297.05 12.5546 296.745 14.1914C 296.698 14.5156 296.671 14.871 296.671 15.25L 296.671 21.75L 294.456 21.75L 294.479 13.3593"
       id="path2237" />
    <path
       style="stroke:none; fill-rule:evenodd; fill:#000000"
       d="M 87.276 41.5234L 76.8659 41.5234L 76.8659 51.2187L 88.5143 51.2187L 88.5143 54.1289L 73.3541 54.1289L 73.3541 27.2382L 87.9167 27.2382L 87.9167 30.1484L 76.8659 30.1484L 76.8659 38.6445L 87.276 38.6445L 87.276 41.5156"
       id="path2239" />
    <path
       style="stroke:none; fill-rule:evenodd; fill:#000000"
       d="M 93.0182 54.1289L 93.0182 27.2382L 96.8463 27.2382L 105.425 40.8437C 107.378 43.9921 108.975 46.7851 110.21 49.5781L 110.327 49.539C 110.011 45.9492 109.928 42.6796 109.928 38.5273L 109.928 27.2382L 113.198 27.2382L 113.198 54.1289L 109.69 54.1289L 101.155 40.4843C 99.2799 37.4921 97.487 34.4218 96.1706 31.5078L 96.0534 31.5429C 96.2487 34.9336 96.2917 38.164 96.2917 42.6328L 96.2917 54.1211L 93.0221 54.1211"
       id="path2241" />
    <path
       style="stroke:none; fill-rule:evenodd; fill:#000000"
       d="M 139.784 52.9336C 138.229 53.5312 135.116 54.4062 131.487 54.4062C 127.421 54.4062 124.069 53.3711 121.432 50.8554C 119.12 48.625 117.682 45.0312 117.682 40.8437C 117.682 32.8242 123.229 26.9609 132.245 26.9609C 135.354 26.9609 137.831 27.6367 138.987 28.1953L 138.112 31.0273C 136.678 30.3515 134.882 29.871 132.171 29.871C 125.628 29.871 121.358 33.9375 121.358 40.6836C 121.358 47.5039 125.425 51.5351 131.729 51.5351C 134.003 51.5351 135.557 51.2187 136.358 50.8203L 136.358 42.8007L 130.932 42.8007L 130.932 40.0078L 139.788 40.0078L 139.788 52.9336"
       id="path2243" />
    <path
       style="stroke:none; fill-rule:evenodd; fill:#000000"
       d="M 145.011 54.1289L 148.518 54.1289L 148.518 27.2382L 145.011 27.2382L 145.011 54.1289z"
       id="path2245" />
    <path
       style="stroke:none; fill-rule:evenodd; fill:#000000"
       d="M 154.585 54.1289L 154.585 27.2382L 158.413 27.2382L 166.987 40.8437C 168.94 43.9921 170.538 46.7851 171.772 49.5781L 171.889 49.539C 171.573 45.9492 171.491 42.6796 171.491 38.5273L 171.491 27.2382L 174.761 27.2382L 174.761 54.1289L 171.249 54.1289L 162.714 40.4843C 160.839 37.4921 159.046 34.4218 157.729 31.5078L 157.612 31.5429C 157.811 34.9336 157.85 38.164 157.85 42.6328L 157.85 54.1211L 154.581 54.1211"
       id="path2247" />
    <path
       style="stroke:none; fill-rule:evenodd; fill:#000000"
       d="M 194.725 41.5234L 184.315 41.5234L 184.315 51.2187L 195.964 51.2187L 195.964 54.1289L 180.803 54.1289L 180.803 27.2382L 195.366 27.2382L 195.366 30.1484L 184.315 30.1484L 184.315 38.6445L 194.725 38.6445L 194.725 41.5156"
       id="path2249" />
    <path
       style="stroke:none; fill-rule:evenodd; fill:#000000"
       d="M 214.354 41.5234L 203.944 41.5234L 203.944 51.2187L 215.593 51.2187L 215.593 54.1289L 200.432 54.1289L 200.432 27.2382L 214.995 27.2382L 214.995 30.1484L 203.944 30.1484L 203.944 38.6445L 214.354 38.6445L 214.354 41.5156"
       id="path2251" />
    <path
       style="stroke:none; fill-rule:evenodd; fill:#000000"
       d="M 223.573 30.0703C 224.171 29.914 225.327 29.7539 227.003 29.7539C 230.671 29.7539 233.186 31.2695 233.186 34.7382C 233.186 37.8086 230.835 39.8437 227.124 39.8437L 223.573 39.8437L 223.573 30.0703zM 220.1 54.1289L 223.569 54.1289L 223.569 42.4804L 226.839 42.4804C 229.987 42.5976 231.464 43.996 232.264 47.707C 232.983 51.0586 233.577 53.3711 234.018 54.1289L 237.608 54.1289C 237.093 53.0937 236.452 50.5 235.577 46.75C 234.901 43.957 233.663 42.0429 231.628 41.3242L 231.628 41.207C 234.421 40.25 236.694 37.8984 236.694 34.3867C 236.694 32.2734 235.897 30.4375 234.581 29.2812C 232.905 27.7656 230.475 27.0507 226.764 27.0507C 224.413 27.0507 221.858 27.289 220.104 27.6484L 220.104 54.1406"
       id="path2253" />
    <path
       style="stroke:none; fill-rule:evenodd; fill:#000000"
       d="M 241.526 54.1289L 245.034 54.1289L 245.034 27.2382L 241.526 27.2382L 241.526 54.1289z"
       id="path2255" />
    <path
       style="stroke:none; fill-rule:evenodd; fill:#000000"
       d="M 251.1 54.1289L 251.1 27.2382L 254.928 27.2382L 263.503 40.8437C 265.456 43.9921 267.053 46.7851 268.288 49.5781L 268.405 49.539C 268.089 45.9492 268.007 42.6796 268.007 38.5273L 268.007 27.2382L 271.276 27.2382L 271.276 54.1289L 267.764 54.1289L 259.229 40.4843C 257.354 37.4921 255.561 34.4218 254.245 31.5078L 254.128 31.5429C 254.323 34.9336 254.366 38.164 254.366 42.6328L 254.366 54.1211L 251.096 54.1211"
       id="path2257" />
    <path
       style="stroke:none; fill-rule:evenodd; fill:#000000"
       d="M 297.862 52.9336C 296.307 53.5312 293.198 54.4062 289.565 54.4062C 285.499 54.4062 282.143 53.3711 279.511 50.8554C 277.198 48.625 275.761 45.0312 275.761 40.8437C 275.761 32.8242 281.303 26.9609 290.323 26.9609C 293.432 26.9609 295.909 27.6367 297.065 28.1953L 296.19 31.0273C 294.757 30.3515 292.96 29.871 290.249 29.871C 283.706 29.871 279.436 33.9375 279.436 40.6836C 279.436 47.5039 283.503 51.5351 289.807 51.5351C 292.081 51.5351 293.635 51.2187 294.436 50.8203L 294.436 42.8007L 289.011 42.8007L 289.011 40.0078L 297.866 40.0078L 297.866 52.9336"
       id="path2259" />
    <path
       style="stroke:none; fill-rule:evenodd; fill:#8d3e3e"
       d="M 176.925 19.8671C 174.503 19.8671 173.147 18.2656 173.147 16.2148C 173.147 13.6367 175.319 12.121 176.706 11.2695C 178.28 13.914 180.104 16.496 181.116 17.9804C 180.046 19.1132 178.628 19.8671 176.96 19.8671L 176.932 19.8671L 176.925 19.8671zM 186.753 21.5664C 185.718 20.3086 184.866 19.1406 184.077 18.0429C 186.03 16.0273 187.385 13.3828 188.55 9.9804L 186.096 9.9804C 185.186 12.6562 184.175 14.7343 182.882 16.3398C 181.784 14.7656 180.241 12.4375 179.073 10.4492L 179.073 10.3593C 182.725 8.6601 184.522 6.7109 184.522 4.1875C 184.522 1.9179 183.073 0 180.241 0C 176.964 0 174.604 2.6445 174.604 5.8242C 174.604 7.082 175.011 8.3086 175.768 9.6679L 175.768 9.7617C 173.155 11.0507 170.511 13.2851 170.511 16.625C 170.511 19.5546 172.589 21.9179 176.245 21.9179C 178.573 21.9179 180.46 21.2265 182.225 19.6171C 182.729 20.371 183.139 20.9375 183.671 21.5664L 186.757 21.5664L 186.753 21.5664zM 180.011 1.8515C 181.553 1.8515 182.116 3.0117 182.116 4.246C 182.116 6.2578 180.608 7.6445 178.057 8.875C 177.366 7.7773 177.05 6.707 177.05 5.5078C 177.05 3.4296 178.37 1.8593 179.979 1.8593L 180.011 1.8593"
       id="path2261" />
  </g>
</svg>
